<svg width="81" height="22" viewBox="0 0 81 22" fill="none" xmlns="http://www.w3.org/2000/svg"><g clip-path="url(#_4290814143__a_r_6k_)" filter="url(#_4290814143__b_r_6k_)"><path d="M74.469 14.714c.182 0 .34-.117.389-.286l2.202-7.445a.394.394 0 0 0-.39-.497h-7.574v8.228h5.373Z" fill="currentColor"></path><path d="m53.05 1.302.003.002 3.824 2.468c1.03.666 2.545 1.168 4.092 1.504 1.551.337 3.156.511 4.376.511h3.406c.341 0 .609.269.609.581v8.464c0 .312-.268.58-.609.58h-3.406c-1.218 0-2.823.175-4.374.512-1.547.336-3.064.838-4.094 1.504L53.05 1.302Zm0 0a.614.614 0 0 0-.337-.1H3.453v18.795h49.26a.624.624 0 0 0 .34-.1l3.824-2.47L53.05 1.303Z" fill="#fff" stroke="url(#_4290814143__c_r_6k_)" stroke-width=".406"></path><path fill-rule="evenodd" clip-rule="evenodd" d="m20.133 10.363-3.81 1.818-1.292-2.707 6.438-3.072 2.123 1.614-.51 2.896 3.729-1.68 1.232 2.736-6.312 2.843-2.094-1.627.496-2.82Z" fill="currentColor"></path><path d="M41.625 20.2h-2V1h2v19.2Z" fill="currentColor"></path></g><defs><linearGradient id="_4290814143__c_r_6k_" x1="36.406" y1="20.2" x2="36.406" y2="1" gradientUnits="userSpaceOnUse"><stop offset=".49" stop-color="#EFEFEF" stop-opacity="0"></stop><stop offset="1" stop-color="#EFEFEF"></stop></linearGradient><clipPath id="_4290814143__a_r_6k_"><path fill="#fff" transform="matrix(1 0 0 -1 3 21.275)" d="M0 0h74.207v20.275H0z"></path></clipPath><filter id="_4290814143__b_r_6k_" x="0" y="0" width="80.207" height="26.275" filterUnits="userSpaceOnUse" color-interpolation-filters="sRGB"><feFlood flood-opacity="0" result="BackgroundImageFix"></feFlood><feColorMatrix in="SourceAlpha" values="0 0 0 0 0 0 0 0 0 0 0 0 0 0 0 0 0 0 127 0" result="hardAlpha"></feColorMatrix><feMorphology radius="1" in="SourceAlpha" result="effect1_dropShadow_18280_80112"></feMorphology><feOffset dy="2"></feOffset><feGaussianBlur stdDeviation="2"></feGaussianBlur><feColorMatrix values="0 0 0 0 0.25098 0 0 0 0 0.341176 0 0 0 0 0.427451 0 0 0 0.3 0"></feColorMatrix><feBlend in2="BackgroundImageFix" result="effect1_dropShadow_18280_80112"></feBlend><feColorMatrix in="SourceAlpha" values="0 0 0 0 0 0 0 0 0 0 0 0 0 0 0 0 0 0 127 0" result="hardAlpha"></feColorMatrix><feMorphology radius="1" operator="dilate" in="SourceAlpha" result="effect2_dropShadow_18280_80112"></feMorphology><feOffset></feOffset><feColorMatrix values="0 0 0 0 0.25098 0 0 0 0 0.341176 0 0 0 0 0.427451 0 0 0 0.04 0"></feColorMatrix><feBlend in2="effect1_dropShadow_18280_80112" result="effect2_dropShadow_18280_80112"></feBlend><feBlend in="SourceGraphic" in2="effect2_dropShadow_18280_80112" result="shape"></feBlend></filter></defs></svg>